<svg xmlns="http://www.w3.org/2000/svg" xmlns:xlink="http://www.w3.org/1999/xlink" width="35" height="35" viewBox="0 0 35 35">
  <defs>
    <clipPath id="clip-path">
      <rect id="Rectangle_707" data-name="Rectangle 707" width="35" height="35" transform="translate(16348 -72)" fill="#fff" stroke="#707070" stroke-width="1"/>
    </clipPath>
  </defs>
  <g id="Mask_Group_194" data-name="Mask Group 194" transform="translate(-16348 72)" clip-path="url(#clip-path)">
    <g id="international-businessman" transform="translate(16351.112 -72)">
      <g id="Group_1797" data-name="Group 1797" transform="translate(0)">
        <path id="Path_1008" data-name="Path 1008" d="M35.868,21.763l.014,0a.16.16,0,0,0,0-.03A.123.123,0,0,1,35.868,21.763Z" transform="translate(-18.058 -9.057)"/>
        <path id="Path_1009" data-name="Path 1009" d="M24.109,21.768l.014,0c-.006-.008-.009-.018-.014-.026Z" transform="translate(-13.158 -9.058)"/>
        <path id="Path_1010" data-name="Path 1010" d="M19.723,0a14.378,14.378,0,0,0-4.751,27.951l.2-2.453a2.542,2.542,0,0,1-.443.039l-.287-.017a2.479,2.479,0,0,1-1.844-1.193c-.054-.039-.11-.074-.164-.113.021-.017.045-.03.066-.047a2.49,2.49,0,0,1-.258-1.4l.044-.371c-.379.237-.747.49-1.1.764a12.214,12.214,0,0,1-3.657-7.7h3.441a20.493,20.493,0,0,0,1.358,6.626l.507-4.315a19.961,19.961,0,0,1-.266-2.311H13.1l.069-.585a2.164,2.164,0,0,1,.179-.48,1.967,1.967,0,0,1,.231-.344,2.415,2.415,0,0,1,.368-.405,2.066,2.066,0,0,1,.365-.242l.14-.075H12.562a18.709,18.709,0,0,1,1.306-6.088,13.832,13.832,0,0,0,2.435.842A4.094,4.094,0,0,1,18.4,6.46a13.963,13.963,0,0,1,1.159-4.32c.055,0,.107-.009.163-.009s.108.007.163.008a13.973,13.973,0,0,1,1.159,4.32,4.1,4.1,0,0,1,2.1,1.616,13.983,13.983,0,0,0,2.47-.856,18.871,18.871,0,0,1,1.272,6.1h-1.86l.156.1a1.525,1.525,0,0,1,.321.215,2.081,2.081,0,0,1,.338.368,2.2,2.2,0,0,1,.259.375,2.35,2.35,0,0,1,.187.509,1.383,1.383,0,0,1,.089.372l.02.188h.493a20.555,20.555,0,0,1-.243,2.238l.487,4.379a20.508,20.508,0,0,0,1.354-6.616h3.44a12.217,12.217,0,0,1-3.656,7.7c-.356-.273-.725-.526-1.1-.762l.041.366a2.492,2.492,0,0,1-.259,1.409c.02.016.046.029.067.045-.056.041-.111.076-.166.115A2.489,2.489,0,0,1,25,25.522l-.278.016a2.434,2.434,0,0,1-.442-.039l.2,2.453A14.378,14.378,0,0,0,19.723,0Zm-8.76,13.321H7.522a12.215,12.215,0,0,1,3.657-7.7,14.118,14.118,0,0,0,1.225.846A20.356,20.356,0,0,0,10.963,13.321Zm2.141-8.3c-.229-.144-.451-.3-.673-.459a12.329,12.329,0,0,1,1.608-1.02A12.867,12.867,0,0,0,13.1,5.017Zm3.654,1.549a12.609,12.609,0,0,1-2.206-.774,8.2,8.2,0,0,1,3.165-3.4A19.965,19.965,0,0,0,16.759,6.567Zm5.928,0a19.768,19.768,0,0,0-.967-4.2,7.968,7.968,0,0,1,3.211,3.408A12.446,12.446,0,0,1,22.687,6.567Zm3.654-1.548a12.742,12.742,0,0,0-.935-1.481,12.289,12.289,0,0,1,1.609,1.021C26.793,4.718,26.571,4.874,26.341,5.018Zm2.142,8.3a20.377,20.377,0,0,0-1.441-6.857,14.261,14.261,0,0,0,1.225-.846,12.211,12.211,0,0,1,3.656,7.7H28.483Z" transform="translate(-5.336)" fill="#c51f27"/>
        <path id="Path_1011" data-name="Path 1011" d="M30.75,15.8a2.633,2.633,0,0,0-5.267,0c0,1.454,1.179,3.14,2.634,3.14S30.75,17.252,30.75,15.8Z" transform="translate(-13.731 -5.485)" fill="#c51f27"/>
        <path id="Path_1012" data-name="Path 1012" d="M30.8,33.84a1.04,1.04,0,0,0,.918-1.147l-.833-7.5a.875.875,0,0,0-.046-.143,1.082,1.082,0,0,0-.068-.215.947.947,0,0,0-.108-.149,1.1,1.1,0,0,0-.141-.165,32.428,32.428,0,0,1-.315-.192,16.637,16.637,0,0,0-4.116-.885l-.267.531h-.005l.7,5.46-.833,1.454-.833-1.455.7-5.46h-.007l-.266-.531a16.656,16.656,0,0,0-4.114.885,1.086,1.086,0,0,0-.154.093,1.341,1.341,0,0,0-.16.1.96.96,0,0,0-.146.172,1.093,1.093,0,0,0-.1.142.964.964,0,0,0-.071.222.789.789,0,0,0-.045.138l-.833,7.5a1.039,1.039,0,0,0,.918,1.147.973.973,0,0,0,.117.008,1.042,1.042,0,0,0,1.033-.927l.759-6.829.288-.084v7.108l-.828,10.3a1.249,1.249,0,0,0,1.144,1.345c.035,0,.068,0,.1,0a1.251,1.251,0,0,0,1.244-1.148l.749-9.313a1.231,1.231,0,0,0,.5.106,1.25,1.25,0,0,0,.5-.106l.749,9.313a1.252,1.252,0,0,0,1.244,1.148c.035,0,.068,0,.1,0A1.249,1.249,0,0,0,29.43,43.42l-.828-10.3V26.008l.288.084.759,6.829a1.044,1.044,0,0,0,1.033.927A.905.905,0,0,0,30.8,33.84Z" transform="translate(-11.299 -9.769)" fill="#c51f27"/>
      </g>
    </g>
  </g>
</svg>
