<svg xmlns="http://www.w3.org/2000/svg" xmlns:xlink="http://www.w3.org/1999/xlink" width="28" height="28" viewBox="0 0 28 28"><defs><style>.a{fill:#fff;stroke:#707070;}.b{clip-path:url(#a);}.c{fill:#c51f27;}</style><clipPath id="a"><rect class="a" width="28" height="28" transform="translate(16305.172 -120.462)"/></clipPath></defs><g class="b" transform="translate(-16305.172 120.462)"><g transform="translate(16305.062 -119.188)"><path class="c" d="M37.268,0H25.136a2.59,2.59,0,0,0-2.542,2.636v6.2l1.981,1.021.99-2.053a2.391,2.391,0,0,1,3.257-1.126,2.56,2.56,0,0,1,1.085,3.377l-1.764,3.66a3.957,3.957,0,0,1-.126,1.445H29.18l-3.072,8.759a.835.835,0,0,0,.761,1.126.81.81,0,0,0,.76-.553L30.9,15.157h.567l3.306,9.336a.811.811,0,0,0,.76.55.835.835,0,0,0,.759-1.128l-3.1-8.757h4.075a2.59,2.59,0,0,0,2.542-2.636V2.636A2.59,2.59,0,0,0,37.268,0ZM35.534,11.563H31.9a.84.84,0,0,1,0-1.678h3.63a.84.84,0,0,1,0,1.678Zm0-3.145H31.9a.84.84,0,0,1,0-1.678h3.63a.84.84,0,0,1,0,1.678Zm0-3.145H26.869a.84.84,0,0,1,0-1.678h8.665a.84.84,0,0,1,0,1.678Zm0,0" transform="translate(-12.195)"/><path class="c" d="M14.234,16.635a2.246,2.246,0,0,0,.022-1.332l2.008-4.164a.854.854,0,0,0-.362-1.126.8.8,0,0,0-1.085.375L13.1,13.94,9.273,11.964a6.769,6.769,0,0,0-3.416-1.14H5.142A3.469,3.469,0,0,0,7.879,9.471a3.717,3.717,0,0,0,.787-2.3A3.591,3.591,0,0,0,5.141,3.516,3.591,3.591,0,0,0,1.618,7.17a3.713,3.713,0,0,0,.958,2.5,3.455,3.455,0,0,0,2.565,1.15,5.076,5.076,0,0,0-3.634,1.561A5.391,5.391,0,0,0,0,16.156v2.7a2.634,2.634,0,0,0,1.733,2.5v4.69a.824.824,0,0,0,.809.839h5.2a.824.824,0,0,0,.809-.839V16.615l2.59,1.343a2.154,2.154,0,0,0,1.835.072,2.261,2.261,0,0,0,1.256-1.384l0-.01Zm0,0" transform="translate(0 -1.838)"/></g></g></svg>