<svg xmlns="http://www.w3.org/2000/svg" xmlns:xlink="http://www.w3.org/1999/xlink" width="28" height="28" viewBox="0 0 28 28"><defs><style>.a{fill:#fff;stroke:#707070;}.b{clip-path:url(#a);}.c{fill:#c51f27;}</style><clipPath id="a"><rect class="a" width="28" height="28" transform="translate(16219 -132.473)"/></clipPath></defs><g class="b" transform="translate(-16219 132.473)"><g transform="translate(16219 -132.236)"><path class="c" d="M35.273,1.041v4.4h4.3Z" transform="translate(-18.951 -0.559)"/><circle class="c" cx="0.813" cy="0.813" r="0.813" transform="translate(9.788 4.937)"/><path class="c" d="M11.493,24.453H6.56a.813.813,0,0,1,0-1.627h4.933V21.2H6.56a.813.813,0,0,1,0-1.627h4.933V18H6.56a.813.813,0,0,1,0-1.627h5.073a2.444,2.444,0,0,1,2.3-1.627h.774A3.5,3.5,0,0,1,18.2,11.5h3V6.507H15.509a.813.813,0,0,1-.813-.813V0H.813A.813.813,0,0,0,0,.813V26.95a.813.813,0,0,0,.813.813h11.5a4.9,4.9,0,0,1-.816-3.31ZM10.6,3.31a2.44,2.44,0,1,1-2.44,2.44A2.443,2.443,0,0,1,10.6,3.31Zm0,4.906a4.072,4.072,0,0,1,4.067,4.067.813.813,0,0,1-.813.813H7.348a.813.813,0,0,1-.813-.813A4.072,4.072,0,0,1,10.6,8.217ZM4.086,24.45A.811.811,0,1,1,4.9,23.64.811.811,0,0,1,4.086,24.45Zm0-3.251a.811.811,0,1,1,.811-.811A.811.811,0,0,1,4.086,21.2Zm0-3.254a.811.811,0,1,1,.811-.811A.811.811,0,0,1,4.086,17.946Z" transform="translate(0)"/><path class="c" d="M17.938,22.9h4.6A2.442,2.442,0,0,0,17.938,22.9Z" transform="translate(-9.638 -11.434)"/><path class="c" d="M36.477,48.391a.813.813,0,1,1-1.627,0v-.1l-6.5-.812v3.352a2.443,2.443,0,0,0,2.44,2.44h9.763A2.443,2.443,0,0,0,43,50.834V47.482l-6.521.816Z" transform="translate(-15.234 -25.511)"/><path class="c" d="M42.184,31.616H39.689c.006-.083,0,.065,0-1.353a1.9,1.9,0,0,0-1.9-1.9H33.431a1.875,1.875,0,0,0-1.873,1.873c0,1.441,0,1.294,0,1.378H29.167a.813.813,0,0,0-.813.813v3.142l6.5.813a.813.813,0,0,1,1.612,0L43,35.572V32.429a.813.813,0,0,0-.813-.813Zm-9,0c.006-.084,0,.063,0-1.378a.247.247,0,0,1,.246-.246h4.363a.271.271,0,0,1,.271.271c0,1.416,0,1.269,0,1.353Z" transform="translate(-15.234 -15.24)"/></g></g></svg>